<svg width="625" height="73" viewBox="0 0 625 73" fill="none" xmlns="http://www.w3.org/2000/svg">
<path d="M21.6186 14.6364H30.8899V45.5696C30.8899 48.429 30.2473 50.9129 28.962 53.0213C27.6912 55.1297 25.9221 56.7544 23.6548 57.8952C21.3875 59.0361 18.752 59.6065 15.7482 59.6065C13.0766 59.6065 10.6505 59.1372 8.46982 58.1985C6.30362 57.2454 4.58511 55.8013 3.31428 53.8661C2.04344 51.9165 1.41525 49.4687 1.42969 46.5227H10.766C10.7949 47.6925 11.0331 48.6961 11.4808 49.5337C11.9429 50.3569 12.5711 50.9923 13.3654 51.44C14.1741 51.8732 15.1272 52.0898 16.2248 52.0898C17.3801 52.0898 18.3549 51.8443 19.1491 51.3533C19.9579 50.8479 20.5716 50.1114 20.9904 49.1438C21.4092 48.1763 21.6186 46.9848 21.6186 45.5696V14.6364ZM53.505 59.6499C50.1402 59.6499 47.2302 58.935 44.7752 57.5053C42.3346 56.0612 40.45 54.0539 39.1214 51.4833C37.7929 48.8983 37.1286 45.9018 37.1286 42.4936C37.1286 39.0566 37.7929 36.0528 39.1214 33.4822C40.45 30.8973 42.3346 28.8899 44.7752 27.4602C47.2302 26.0161 50.1402 25.294 53.505 25.294C56.8698 25.294 59.7725 26.0161 62.2131 27.4602C64.6681 28.8899 66.5599 30.8973 67.8885 33.4822C69.2171 36.0528 69.8814 39.0566 69.8814 42.4936C69.8814 45.9018 69.2171 48.8983 67.8885 51.4833C66.5599 54.0539 64.6681 56.0612 62.2131 57.5053C59.7725 58.935 56.8698 59.6499 53.505 59.6499ZM53.5483 52.5014C55.0791 52.5014 56.3571 52.0682 57.3825 51.2017C58.4078 50.3208 59.1804 49.1222 59.7003 47.6058C60.2346 46.0895 60.5018 44.3638 60.5018 42.4286C60.5018 40.4935 60.2346 38.7678 59.7003 37.2514C59.1804 35.7351 58.4078 34.5365 57.3825 33.6555C56.3571 32.7746 55.0791 32.3342 53.5483 32.3342C52.0031 32.3342 50.7034 32.7746 49.6491 33.6555C48.6094 34.5365 47.8223 35.7351 47.288 37.2514C46.7681 38.7678 46.5082 40.4935 46.5082 42.4286C46.5082 44.3638 46.7681 46.0895 47.288 47.6058C47.8223 49.1222 48.6094 50.3208 49.6491 51.2017C50.7034 52.0682 52.0031 52.5014 53.5483 52.5014ZM75.8817 59V25.7273H85.1097V59H75.8817ZM80.5174 21.4382C79.1455 21.4382 77.9685 20.9833 76.9865 20.0735C76.0189 19.1493 75.5352 18.0445 75.5352 16.7592C75.5352 15.4884 76.0189 14.3981 76.9865 13.4883C77.9685 12.564 79.1455 12.1019 80.5174 12.1019C81.8893 12.1019 83.0591 12.564 84.0266 13.4883C85.0086 14.3981 85.4996 15.4884 85.4996 16.7592C85.4996 18.0445 85.0086 19.1493 84.0266 20.0735C83.0591 20.9833 81.8893 21.4382 80.5174 21.4382ZM101.73 39.7642V59H92.5019V25.7273H101.297V31.5977H101.687C102.423 29.6625 103.658 28.1317 105.391 27.0053C107.124 25.8645 109.225 25.294 111.694 25.294C114.005 25.294 116.02 25.7995 117.738 26.8104C119.457 27.8213 120.792 29.2654 121.745 31.1428C122.699 33.0057 123.175 35.2296 123.175 37.8146V59H113.947V39.4609C113.962 37.4247 113.442 35.8362 112.388 34.6953C111.333 33.54 109.882 32.9624 108.033 32.9624C106.792 32.9624 105.694 33.2295 104.741 33.7638C103.802 34.2982 103.066 35.078 102.531 36.1033C102.011 37.1142 101.744 38.3345 101.73 39.7642ZM160.878 59.6065C157.643 59.6065 154.762 59.0505 152.235 57.9386C149.722 56.8121 147.736 55.2669 146.278 53.3029C144.833 51.3245 144.09 49.0427 144.046 46.4577H153.491C153.549 47.5408 153.903 48.494 154.552 49.3171C155.217 50.1258 156.098 50.754 157.195 51.2017C158.293 51.6494 159.527 51.8732 160.899 51.8732C162.329 51.8732 163.593 51.6205 164.69 51.1151C165.788 50.6096 166.647 49.9092 167.268 49.0138C167.889 48.1185 168.199 47.0859 168.199 45.9162C168.199 44.732 167.867 43.685 167.203 42.7752C166.553 41.851 165.614 41.1289 164.387 40.609C163.174 40.0891 161.73 39.8292 160.055 39.8292H155.917V32.9407H160.055C161.47 32.9407 162.719 32.6952 163.802 32.2042C164.9 31.7132 165.752 31.0344 166.358 30.168C166.965 29.287 167.268 28.2617 167.268 27.092C167.268 25.98 167.001 25.0052 166.467 24.1676C165.947 23.3156 165.21 22.6513 164.257 22.1747C163.318 21.6982 162.221 21.4599 160.964 21.4599C159.694 21.4599 158.531 21.6909 157.477 22.1531C156.423 22.6007 155.578 23.2434 154.942 24.081C154.307 24.9186 153.968 25.9006 153.924 27.027H144.935C144.978 24.4709 145.707 22.218 147.122 20.2685C148.538 18.3189 150.444 16.7953 152.841 15.6978C155.253 14.5858 157.975 14.0298 161.008 14.0298C164.069 14.0298 166.748 14.5858 169.044 15.6978C171.34 16.8098 173.124 18.3117 174.395 20.2035C175.68 22.0808 176.315 24.1893 176.301 26.5288C176.315 29.0127 175.543 31.085 173.983 32.7457C172.438 34.4065 170.423 35.4607 167.94 35.9084V36.255C171.203 36.6738 173.687 37.8074 175.391 39.6559C177.11 41.4899 177.962 43.7861 177.947 46.5444C177.962 49.0716 177.233 51.3172 175.76 53.2812C174.301 55.2453 172.286 56.7905 169.716 57.9169C167.145 59.0433 164.199 59.6065 160.878 59.6065ZM201.716 59.6065C199.434 59.5921 197.232 59.2094 195.109 58.4585C193.001 57.7075 191.109 56.4872 189.434 54.7976C187.758 53.108 186.43 50.8696 185.448 48.0824C184.48 45.2952 183.996 41.8726 183.996 37.8146C184.011 34.0888 184.437 30.7601 185.275 27.8285C186.127 24.8825 187.34 22.3841 188.914 20.3334C190.502 18.2828 192.401 16.7231 194.611 15.6545C196.82 14.5714 199.297 14.0298 202.041 14.0298C205.001 14.0298 207.615 14.6075 209.882 15.7628C212.15 16.9036 213.969 18.4561 215.341 20.4201C216.728 22.3841 217.565 24.5864 217.854 27.027H208.604C208.243 25.4818 207.485 24.2687 206.33 23.3878C205.175 22.5069 203.745 22.0664 202.041 22.0664C199.153 22.0664 196.958 23.3228 195.456 25.8356C193.968 28.3484 193.21 31.7637 193.181 36.0817H193.484C194.149 34.7675 195.044 33.6483 196.17 32.7241C197.311 31.7854 198.604 31.0705 200.048 30.5795C201.507 30.0741 203.045 29.8214 204.662 29.8214C207.29 29.8214 209.63 30.4424 211.68 31.6843C213.731 32.9118 215.348 34.6014 216.533 36.7532C217.717 38.9049 218.309 41.3672 218.309 44.1399C218.309 47.1437 217.609 49.8153 216.208 52.1548C214.821 54.4943 212.879 56.3284 210.381 57.657C207.897 58.9711 205.009 59.621 201.716 59.6065ZM201.673 52.2415C203.117 52.2415 204.409 51.8949 205.55 51.2017C206.691 50.5085 207.586 49.5698 208.236 48.3857C208.886 47.2015 209.211 45.8729 209.211 44.3999C209.211 42.9268 208.886 41.6055 208.236 40.4357C207.601 39.266 206.72 38.3345 205.593 37.6413C204.467 36.9482 203.182 36.6016 201.738 36.6016C200.654 36.6016 199.651 36.8037 198.727 37.2081C197.817 37.6125 197.015 38.1757 196.322 38.8977C195.643 39.6198 195.109 40.4574 194.719 41.4105C194.329 42.3492 194.134 43.3529 194.134 44.4215C194.134 45.8512 194.459 47.1581 195.109 48.3423C195.773 49.5265 196.669 50.4724 197.795 51.18C198.936 51.8877 200.228 52.2415 201.673 52.2415ZM242.354 59.9748C238.628 59.9603 235.422 59.0433 232.736 57.2237C230.064 55.4041 228.006 52.7686 226.562 49.3171C225.132 45.8656 224.425 41.7138 224.439 36.8615C224.439 32.0237 225.154 27.9007 226.584 24.4925C228.028 21.0844 230.086 18.4922 232.757 16.7159C235.444 14.9252 238.642 14.0298 242.354 14.0298C246.065 14.0298 249.257 14.9252 251.928 16.7159C254.614 18.5066 256.679 21.1061 258.124 24.5142C259.568 27.9079 260.283 32.0237 260.268 36.8615C260.268 41.7282 259.546 45.8873 258.102 49.3388C256.672 52.7902 254.622 55.4258 251.95 57.2454C249.278 59.065 246.08 59.9748 242.354 59.9748ZM242.354 52.1982C244.895 52.1982 246.924 50.9201 248.441 48.364C249.957 45.8079 250.708 41.9737 250.694 36.8615C250.694 33.4967 250.347 30.6951 249.654 28.4567C248.975 26.2183 248.007 24.5359 246.751 23.4094C245.509 22.283 244.043 21.7198 242.354 21.7198C239.826 21.7198 237.805 22.9834 236.288 25.5107C234.772 28.0379 234.007 31.8215 233.992 36.8615C233.992 40.2696 234.332 43.1146 235.01 45.3963C235.703 47.6636 236.678 49.3677 237.935 50.5085C239.191 51.6349 240.664 52.1982 242.354 52.1982Z" fill="black"/>
<path d="M294 7V66" stroke="#29ABE2" stroke-width="3" stroke-linecap="round"/>
<path d="M326.378 46.5V26.8636H328.756V36.6051H328.986L337.807 26.8636H340.913L332.668 35.723L340.913 46.5H338.037L331.21 37.3722L328.756 40.1335V46.5H326.378ZM348.778 46.8068C347.359 46.8068 346.135 46.4936 345.106 45.8672C344.083 45.2344 343.294 44.3523 342.737 43.2209C342.188 42.0831 341.913 40.7599 341.913 39.2514C341.913 37.7429 342.188 36.4134 342.737 35.2628C343.294 34.1058 344.067 33.2045 345.058 32.5589C346.055 31.907 347.218 31.581 348.548 31.581C349.315 31.581 350.072 31.7088 350.82 31.9645C351.568 32.2202 352.249 32.6357 352.862 33.2109C353.476 33.7798 353.965 34.5341 354.329 35.4737C354.694 36.4134 354.876 37.5703 354.876 38.9446V39.9034H343.524V37.9474H352.575C352.575 37.1165 352.409 36.375 352.076 35.723C351.75 35.071 351.284 34.5565 350.676 34.1793C350.076 33.8022 349.366 33.6136 348.548 33.6136C347.647 33.6136 346.867 33.8374 346.208 34.2848C345.556 34.7259 345.055 35.3011 344.703 36.0107C344.351 36.7202 344.176 37.4808 344.176 38.2926V39.5966C344.176 40.7088 344.367 41.6516 344.751 42.4251C345.141 43.1921 345.681 43.777 346.371 44.1797C347.062 44.576 347.864 44.7741 348.778 44.7741C349.372 44.7741 349.909 44.6911 350.389 44.5249C350.875 44.3523 351.293 44.0966 351.645 43.7578C351.996 43.4126 352.268 42.9844 352.46 42.473L354.646 43.0866C354.416 43.8281 354.029 44.4801 353.486 45.0426C352.942 45.5987 352.271 46.0334 351.472 46.3466C350.673 46.6534 349.775 46.8068 348.778 46.8068ZM359.327 52.0227C358.944 52.0227 358.602 51.9908 358.301 51.9268C358.001 51.8693 357.793 51.8118 357.678 51.7543L358.253 49.7599C358.803 49.9006 359.289 49.9517 359.711 49.9134C360.133 49.875 360.507 49.6864 360.833 49.3477C361.165 49.0153 361.469 48.4751 361.743 47.7273L362.165 46.5767L356.719 31.7727H359.174L363.239 43.5085H363.393L367.458 31.7727H369.912L363.661 48.6477C363.38 49.4084 363.031 50.038 362.616 50.5366C362.2 51.0415 361.718 51.4155 361.168 51.6584C360.625 51.9013 360.011 52.0227 359.327 52.0227ZM380.8 26.8636H383.638L390.311 43.1634H390.541L397.214 26.8636H400.053V46.5H397.828V31.581H397.636L391.5 46.5H389.352L383.216 31.581H383.024V46.5H380.8V26.8636ZM410.688 46.8068C409.269 46.8068 408.045 46.4936 407.016 45.8672C405.993 45.2344 405.204 44.3523 404.648 43.2209C404.098 42.0831 403.823 40.7599 403.823 39.2514C403.823 37.7429 404.098 36.4134 404.648 35.2628C405.204 34.1058 405.977 33.2045 406.968 32.5589C407.965 31.907 409.128 31.581 410.458 31.581C411.225 31.581 411.983 31.7088 412.73 31.9645C413.478 32.2202 414.159 32.6357 414.773 33.2109C415.386 33.7798 415.875 34.5341 416.24 35.4737C416.604 36.4134 416.786 37.5703 416.786 38.9446V39.9034H405.434V37.9474H414.485C414.485 37.1165 414.319 36.375 413.986 35.723C413.66 35.071 413.194 34.5565 412.587 34.1793C411.986 33.8022 411.276 33.6136 410.458 33.6136C409.557 33.6136 408.777 33.8374 408.119 34.2848C407.467 34.7259 406.965 35.3011 406.613 36.0107C406.262 36.7202 406.086 37.4808 406.086 38.2926V39.5966C406.086 40.7088 406.278 41.6516 406.661 42.4251C407.051 43.1921 407.591 43.777 408.282 44.1797C408.972 44.576 409.774 44.7741 410.688 44.7741C411.283 44.7741 411.82 44.6911 412.299 44.5249C412.785 44.3523 413.203 44.0966 413.555 43.7578C413.907 43.4126 414.178 42.9844 414.37 42.473L416.556 43.0866C416.326 43.8281 415.939 44.4801 415.396 45.0426C414.853 45.5987 414.181 46.0334 413.382 46.3466C412.583 46.6534 411.685 46.8068 410.688 46.8068ZM426.633 31.7727V33.6903H419.001V31.7727H426.633ZM421.225 28.2443H423.488V42.2812C423.488 42.9205 423.581 43.3999 423.766 43.7195C423.958 44.0327 424.201 44.2436 424.495 44.3523C424.795 44.4545 425.112 44.5057 425.444 44.5057C425.693 44.5057 425.898 44.4929 426.058 44.4673C426.218 44.4354 426.345 44.4098 426.441 44.3906L426.902 46.4233C426.748 46.4808 426.534 46.5384 426.259 46.5959C425.984 46.6598 425.636 46.6918 425.214 46.6918C424.575 46.6918 423.948 46.5543 423.335 46.2795C422.728 46.0046 422.223 45.5859 421.82 45.0234C421.424 44.4609 421.225 43.7514 421.225 42.8949V28.2443ZM430.037 46.5V31.7727H432.223V33.9972H432.376C432.645 33.2685 433.131 32.6772 433.834 32.2234C434.537 31.7695 435.329 31.5426 436.212 31.5426C436.378 31.5426 436.585 31.5458 436.835 31.5522C437.084 31.5586 437.273 31.5682 437.4 31.581V33.8821C437.324 33.8629 437.148 33.8342 436.873 33.7958C436.605 33.7511 436.32 33.7287 436.02 33.7287C435.304 33.7287 434.665 33.8789 434.102 34.1793C433.546 34.4734 433.105 34.8825 432.779 35.4066C432.459 35.9244 432.3 36.5156 432.3 37.1804V46.5H430.037ZM440.083 46.5V31.7727H442.346V46.5H440.083ZM441.233 29.3182C440.792 29.3182 440.412 29.168 440.092 28.8675C439.779 28.5671 439.623 28.206 439.623 27.7841C439.623 27.3622 439.779 27.0011 440.092 26.7006C440.412 26.4002 440.792 26.25 441.233 26.25C441.674 26.25 442.051 26.4002 442.365 26.7006C442.684 27.0011 442.844 27.3622 442.844 27.7841C442.844 28.206 442.684 28.5671 442.365 28.8675C442.051 29.168 441.674 29.3182 441.233 29.3182ZM452.473 46.8068C451.092 46.8068 449.903 46.4808 448.906 45.8288C447.909 45.1768 447.142 44.2788 446.605 43.1346C446.068 41.9904 445.8 40.6832 445.8 39.2131C445.8 37.7173 446.074 36.3974 446.624 35.2532C447.18 34.1026 447.954 33.2045 448.945 32.5589C449.942 31.907 451.105 31.581 452.435 31.581C453.47 31.581 454.403 31.7727 455.234 32.1562C456.065 32.5398 456.746 33.0767 457.277 33.767C457.807 34.4574 458.136 35.2628 458.264 36.1832H456.001C455.829 35.5121 455.445 34.9176 454.851 34.3999C454.263 33.8757 453.47 33.6136 452.473 33.6136C451.591 33.6136 450.817 33.8437 450.153 34.304C449.494 34.7578 448.98 35.4002 448.609 36.2312C448.245 37.0558 448.062 38.0241 448.062 39.1364C448.062 40.2741 448.241 41.2649 448.599 42.1087C448.964 42.9524 449.475 43.6076 450.133 44.0742C450.798 44.5408 451.578 44.7741 452.473 44.7741C453.061 44.7741 453.595 44.6719 454.074 44.4673C454.554 44.2628 454.959 43.9688 455.292 43.5852C455.624 43.2017 455.861 42.7415 456.001 42.2045H458.264C458.136 43.0739 457.82 43.8569 457.315 44.5536C456.816 45.244 456.155 45.7937 455.33 46.2028C454.512 46.6055 453.56 46.8068 452.473 46.8068ZM472.004 35.071L469.971 35.6463C469.843 35.3075 469.655 34.9783 469.405 34.6587C469.163 34.3327 468.83 34.0643 468.408 33.8533C467.986 33.6424 467.446 33.5369 466.788 33.5369C465.887 33.5369 465.136 33.7447 464.535 34.1602C463.94 34.5692 463.643 35.0902 463.643 35.723C463.643 36.2855 463.848 36.7298 464.257 37.0558C464.666 37.3817 465.305 37.6534 466.174 37.8707L468.36 38.4077C469.677 38.7273 470.658 39.2163 471.304 39.8746C471.949 40.5266 472.272 41.3672 472.272 42.3963C472.272 43.2401 472.029 43.9943 471.544 44.6591C471.064 45.3239 470.393 45.848 469.53 46.2315C468.667 46.6151 467.664 46.8068 466.519 46.8068C465.017 46.8068 463.774 46.4808 462.79 45.8288C461.805 45.1768 461.182 44.2244 460.92 42.9716L463.068 42.4347C463.272 43.2273 463.659 43.8217 464.228 44.218C464.803 44.6143 465.554 44.8125 466.481 44.8125C467.536 44.8125 468.373 44.5888 468.993 44.1413C469.62 43.6875 469.933 43.1442 469.933 42.5114C469.933 42 469.754 41.5717 469.396 41.2266C469.038 40.875 468.488 40.6129 467.747 40.4403L465.292 39.8651C463.943 39.5455 462.953 39.0501 462.32 38.3789C461.693 37.7013 461.38 36.8544 461.38 35.8381C461.38 35.0071 461.614 34.272 462.08 33.6328C462.553 32.9936 463.196 32.4918 464.007 32.1275C464.826 31.7631 465.752 31.581 466.788 31.581C468.245 31.581 469.389 31.9006 470.22 32.5398C471.058 33.179 471.652 34.0227 472.004 35.071ZM487.606 46.8452C486.673 46.8452 485.826 46.6694 485.065 46.3178C484.305 45.9599 483.7 45.4453 483.253 44.7741C482.806 44.0966 482.582 43.2784 482.582 42.3196C482.582 41.4759 482.748 40.7919 483.08 40.2678C483.413 39.7372 483.857 39.3217 484.413 39.0213C484.969 38.7209 485.583 38.4972 486.254 38.3501C486.932 38.1967 487.612 38.0753 488.296 37.9858C489.191 37.8707 489.917 37.7844 490.473 37.7269C491.035 37.663 491.444 37.5575 491.7 37.4105C491.962 37.2635 492.093 37.0078 492.093 36.6435V36.5668C492.093 35.6207 491.834 34.8857 491.317 34.3615C490.805 33.8374 490.029 33.5753 488.987 33.5753C487.906 33.5753 487.059 33.8118 486.446 34.2848C485.832 34.7578 485.401 35.2628 485.151 35.7997L483.004 35.0327C483.387 34.1378 483.899 33.4411 484.538 32.9425C485.183 32.4375 485.887 32.0859 486.647 31.8878C487.414 31.6832 488.169 31.581 488.91 31.581C489.383 31.581 489.926 31.6385 490.54 31.7536C491.16 31.8622 491.758 32.0891 492.333 32.4343C492.915 32.7795 493.397 33.3004 493.781 33.9972C494.164 34.6939 494.356 35.6271 494.356 36.7969V46.5H492.093V44.5057H491.978C491.825 44.8253 491.569 45.1673 491.211 45.5316C490.853 45.896 490.377 46.206 489.782 46.4616C489.188 46.7173 488.463 46.8452 487.606 46.8452ZM487.951 44.8125C488.846 44.8125 489.6 44.6367 490.214 44.2852C490.834 43.9336 491.301 43.4798 491.614 42.9237C491.933 42.3675 492.093 41.7827 492.093 41.169V39.098C491.997 39.2131 491.786 39.3185 491.46 39.4144C491.141 39.5039 490.77 39.5838 490.348 39.6541C489.933 39.718 489.527 39.7756 489.131 39.8267C488.741 39.8714 488.424 39.9098 488.181 39.9418C487.593 40.0185 487.044 40.1431 486.532 40.3157C486.027 40.4819 485.618 40.7344 485.305 41.0732C484.998 41.4055 484.845 41.8594 484.845 42.4347C484.845 43.2209 485.135 43.8153 485.717 44.218C486.305 44.6143 487.05 44.8125 487.951 44.8125ZM504.891 31.7727V33.6903H497.259V31.7727H504.891ZM499.483 28.2443H501.746V42.2812C501.746 42.9205 501.839 43.3999 502.024 43.7195C502.216 44.0327 502.459 44.2436 502.753 44.3523C503.053 44.4545 503.37 44.5057 503.702 44.5057C503.951 44.5057 504.156 44.4929 504.316 44.4673C504.475 44.4354 504.603 44.4098 504.699 44.3906L505.159 46.4233C505.006 46.4808 504.792 46.5384 504.517 46.5959C504.242 46.6598 503.894 46.6918 503.472 46.6918C502.833 46.6918 502.206 46.5543 501.593 46.2795C500.985 46.0046 500.48 45.5859 500.078 45.0234C499.681 44.4609 499.483 43.7514 499.483 42.8949V28.2443ZM520.222 46.8452C519.289 46.8452 518.442 46.6694 517.681 46.3178C516.921 45.9599 516.317 45.4453 515.869 44.7741C515.422 44.0966 515.198 43.2784 515.198 42.3196C515.198 41.4759 515.364 40.7919 515.697 40.2678C516.029 39.7372 516.473 39.3217 517.029 39.0213C517.585 38.7209 518.199 38.4972 518.87 38.3501C519.548 38.1967 520.229 38.0753 520.913 37.9858C521.807 37.8707 522.533 37.7844 523.089 37.7269C523.652 37.663 524.061 37.5575 524.316 37.4105C524.578 37.2635 524.709 37.0078 524.709 36.6435V36.5668C524.709 35.6207 524.451 34.8857 523.933 34.3615C523.421 33.8374 522.645 33.5753 521.603 33.5753C520.523 33.5753 519.676 33.8118 519.062 34.2848C518.448 34.7578 518.017 35.2628 517.768 35.7997L515.62 35.0327C516.003 34.1378 516.515 33.4411 517.154 32.9425C517.8 32.4375 518.503 32.0859 519.263 31.8878C520.03 31.6832 520.785 31.581 521.526 31.581C521.999 31.581 522.543 31.6385 523.156 31.7536C523.776 31.8622 524.374 32.0891 524.949 32.4343C525.531 32.7795 526.013 33.3004 526.397 33.9972C526.78 34.6939 526.972 35.6271 526.972 36.7969V46.5H524.709V44.5057H524.594C524.441 44.8253 524.185 45.1673 523.827 45.5316C523.469 45.896 522.993 46.206 522.399 46.4616C521.804 46.7173 521.079 46.8452 520.222 46.8452ZM520.567 44.8125C521.462 44.8125 522.217 44.6367 522.83 44.2852C523.45 43.9336 523.917 43.4798 524.23 42.9237C524.55 42.3675 524.709 41.7827 524.709 41.169V39.098C524.614 39.2131 524.403 39.3185 524.077 39.4144C523.757 39.5039 523.386 39.5838 522.964 39.6541C522.549 39.718 522.143 39.7756 521.747 39.8267C521.357 39.8714 521.04 39.9098 520.797 39.9418C520.209 40.0185 519.66 40.1431 519.148 40.3157C518.643 40.4819 518.234 40.7344 517.921 41.0732C517.614 41.4055 517.461 41.8594 517.461 42.4347C517.461 43.2209 517.752 43.8153 518.333 44.218C518.921 44.6143 519.666 44.8125 520.567 44.8125ZM552.426 33C552.215 32.3544 551.937 31.7759 551.592 31.2646C551.253 30.7468 550.847 30.3058 550.374 29.9414C549.908 29.5771 549.377 29.299 548.783 29.1072C548.188 28.9155 547.536 28.8196 546.827 28.8196C545.663 28.8196 544.605 29.12 543.653 29.7209C542.701 30.3217 541.943 31.207 541.381 32.3768C540.818 33.5465 540.537 34.9815 540.537 36.6818C540.537 38.3821 540.821 39.8171 541.39 40.9869C541.959 42.1566 542.729 43.0419 543.701 43.6428C544.673 44.2436 545.766 44.544 546.98 44.544C548.105 44.544 549.096 44.3043 549.952 43.8249C550.815 43.3391 551.487 42.6552 551.966 41.7731C552.452 40.8846 552.695 39.8395 552.695 38.6378L553.423 38.7912H547.517V36.6818H554.996V38.7912C554.996 40.4084 554.651 41.8146 553.96 43.0099C553.276 44.2053 552.33 45.1321 551.122 45.7905C549.92 46.4425 548.54 46.7685 546.98 46.7685C545.241 46.7685 543.714 46.3594 542.397 45.5412C541.087 44.723 540.064 43.5597 539.329 42.0511C538.6 40.5426 538.236 38.7528 538.236 36.6818C538.236 35.1286 538.444 33.7319 538.859 32.4918C539.281 31.2454 539.875 30.1843 540.642 29.3086C541.409 28.4329 542.317 27.7617 543.365 27.2951C544.414 26.8285 545.567 26.5952 546.827 26.5952C547.862 26.5952 548.827 26.7518 549.722 27.065C550.624 27.3718 551.426 27.8097 552.129 28.3786C552.838 28.9411 553.43 29.6154 553.903 30.4016C554.376 31.1815 554.702 32.0476 554.881 33H552.426ZM561.024 26.8636V46.5H558.761V26.8636H561.024ZM569.502 46.8452C568.569 46.8452 567.722 46.6694 566.962 46.3178C566.201 45.9599 565.597 45.4453 565.15 44.7741C564.702 44.0966 564.478 43.2784 564.478 42.3196C564.478 41.4759 564.645 40.7919 564.977 40.2678C565.309 39.7372 565.754 39.3217 566.31 39.0213C566.866 38.7209 567.479 38.4972 568.151 38.3501C568.828 38.1967 569.509 38.0753 570.193 37.9858C571.088 37.8707 571.813 37.7844 572.369 37.7269C572.932 37.663 573.341 37.5575 573.597 37.4105C573.859 37.2635 573.99 37.0078 573.99 36.6435V36.5668C573.99 35.6207 573.731 34.8857 573.213 34.3615C572.702 33.8374 571.925 33.5753 570.883 33.5753C569.803 33.5753 568.956 33.8118 568.342 34.2848C567.729 34.7578 567.297 35.2628 567.048 35.7997L564.9 35.0327C565.284 34.1378 565.795 33.4411 566.434 32.9425C567.08 32.4375 567.783 32.0859 568.544 31.8878C569.311 31.6832 570.065 31.581 570.806 31.581C571.279 31.581 571.823 31.6385 572.436 31.7536C573.056 31.8622 573.654 32.0891 574.229 32.4343C574.811 32.7795 575.294 33.3004 575.677 33.9972C576.061 34.6939 576.252 35.6271 576.252 36.7969V46.5H573.99V44.5057H573.875C573.721 44.8253 573.466 45.1673 573.108 45.5316C572.75 45.896 572.273 46.206 571.679 46.4616C571.085 46.7173 570.359 46.8452 569.502 46.8452ZM569.848 44.8125C570.743 44.8125 571.497 44.6367 572.11 44.2852C572.73 43.9336 573.197 43.4798 573.51 42.9237C573.83 42.3675 573.99 41.7827 573.99 41.169V39.098C573.894 39.2131 573.683 39.3185 573.357 39.4144C573.037 39.5039 572.667 39.5838 572.245 39.6541C571.829 39.718 571.423 39.7756 571.027 39.8267C570.637 39.8714 570.321 39.9098 570.078 39.9418C569.49 40.0185 568.94 40.1431 568.429 40.3157C567.924 40.4819 567.515 40.7344 567.201 41.0732C566.895 41.4055 566.741 41.8594 566.741 42.4347C566.741 43.2209 567.032 43.8153 567.614 44.218C568.202 44.6143 568.946 44.8125 569.848 44.8125ZM582.645 37.6406V46.5H580.383V31.7727H582.569V34.0739H582.76C583.106 33.326 583.63 32.7251 584.333 32.2713C585.036 31.8111 585.944 31.581 587.056 31.581C588.053 31.581 588.926 31.7855 589.673 32.1946C590.421 32.5973 591.003 33.2109 591.418 34.0355C591.834 34.8537 592.042 35.8892 592.042 37.142V46.5H589.779V37.2955C589.779 36.1385 589.478 35.2372 588.878 34.5916C588.277 33.9396 587.452 33.6136 586.404 33.6136C585.682 33.6136 585.036 33.7702 584.467 34.0835C583.905 34.3967 583.46 34.8537 583.134 35.4545C582.808 36.0554 582.645 36.7841 582.645 37.6406ZM602.159 46.8068C600.779 46.8068 599.59 46.4808 598.593 45.8288C597.596 45.1768 596.828 44.2788 596.292 43.1346C595.755 41.9904 595.486 40.6832 595.486 39.2131C595.486 37.7173 595.761 36.3974 596.311 35.2532C596.867 34.1026 597.64 33.2045 598.631 32.5589C599.628 31.907 600.792 31.581 602.121 31.581C603.157 31.581 604.09 31.7727 604.921 32.1562C605.752 32.5398 606.433 33.0767 606.963 33.767C607.494 34.4574 607.823 35.2628 607.951 36.1832H605.688C605.515 35.5121 605.132 34.9176 604.537 34.3999C603.949 33.8757 603.157 33.6136 602.159 33.6136C601.277 33.6136 600.504 33.8437 599.839 34.304C599.181 34.7578 598.666 35.4002 598.295 36.2312C597.931 37.0558 597.749 38.0241 597.749 39.1364C597.749 40.2741 597.928 41.2649 598.286 42.1087C598.65 42.9524 599.162 43.6076 599.82 44.0742C600.485 44.5408 601.265 44.7741 602.159 44.7741C602.748 44.7741 603.281 44.6719 603.761 44.4673C604.24 44.2628 604.646 43.9688 604.978 43.5852C605.311 43.2017 605.547 42.7415 605.688 42.2045H607.951C607.823 43.0739 607.506 43.8569 607.001 44.5536C606.503 45.244 605.841 45.7937 605.017 46.2028C604.199 46.6055 603.246 46.8068 602.159 46.8068ZM617.433 46.8068C616.014 46.8068 614.79 46.4936 613.761 45.8672C612.738 45.2344 611.949 44.3523 611.393 43.2209C610.843 42.0831 610.568 40.7599 610.568 39.2514C610.568 37.7429 610.843 36.4134 611.393 35.2628C611.949 34.1058 612.722 33.2045 613.713 32.5589C614.71 31.907 615.874 31.581 617.203 31.581C617.97 31.581 618.728 31.7088 619.475 31.9645C620.223 32.2202 620.904 32.6357 621.518 33.2109C622.131 33.7798 622.62 34.5341 622.985 35.4737C623.349 36.4134 623.531 37.5703 623.531 38.9446V39.9034H612.179V37.9474H621.23C621.23 37.1165 621.064 36.375 620.732 35.723C620.406 35.071 619.939 34.5565 619.332 34.1793C618.731 33.8022 618.021 33.6136 617.203 33.6136C616.302 33.6136 615.522 33.8374 614.864 34.2848C614.212 34.7259 613.71 35.3011 613.358 36.0107C613.007 36.7202 612.831 37.4808 612.831 38.2926V39.5966C612.831 40.7088 613.023 41.6516 613.406 42.4251C613.796 43.1921 614.336 43.777 615.027 44.1797C615.717 44.576 616.519 44.7741 617.433 44.7741C618.028 44.7741 618.565 44.6911 619.044 44.5249C619.53 44.3523 619.949 44.0966 620.3 43.7578C620.652 43.4126 620.923 42.9844 621.115 42.473L623.301 43.0866C623.071 43.8281 622.684 44.4801 622.141 45.0426C621.598 45.5987 620.926 46.0334 620.127 46.3466C619.328 46.6534 618.43 46.8068 617.433 46.8068Z" fill="#2A3647"/>
</svg>
